<?xml version="1.0" encoding="utf-8"?>
<svg xmlns="http://www.w3.org/2000/svg" xmlns:xlink="http://www.w3.org/1999/xlink" style="margin: auto; background: none; display: block; shape-rendering: auto;" width="197px" height="197px" viewBox="0 0 100 100" preserveAspectRatio="xMidYMid">
<g transform="rotate(0 50 50)">
  <rect x="47.5" y="22.5" rx="2.47" ry="2.47" width="5" height="13" fill="#3c6f84">
    <animate attributeName="opacity" values="1;0" keyTimes="0;1" dur="1.2048192771084336s" begin="-1.0952902519167578s" repeatCount="indefinite"></animate>
  </rect>
</g><g transform="rotate(32.72727272727273 50 50)">
  <rect x="47.5" y="22.5" rx="2.47" ry="2.47" width="5" height="13" fill="#3c6f84">
    <animate attributeName="opacity" values="1;0" keyTimes="0;1" dur="1.2048192771084336s" begin="-0.985761226725082s" repeatCount="indefinite"></animate>
  </rect>
</g><g transform="rotate(65.45454545454545 50 50)">
  <rect x="47.5" y="22.5" rx="2.47" ry="2.47" width="5" height="13" fill="#3c6f84">
    <animate attributeName="opacity" values="1;0" keyTimes="0;1" dur="1.2048192771084336s" begin="-0.8762322015334063s" repeatCount="indefinite"></animate>
  </rect>
</g><g transform="rotate(98.18181818181819 50 50)">
  <rect x="47.5" y="22.5" rx="2.47" ry="2.47" width="5" height="13" fill="#3c6f84">
    <animate attributeName="opacity" values="1;0" keyTimes="0;1" dur="1.2048192771084336s" begin="-0.7667031763417305s" repeatCount="indefinite"></animate>
  </rect>
</g><g transform="rotate(130.9090909090909 50 50)">
  <rect x="47.5" y="22.5" rx="2.47" ry="2.47" width="5" height="13" fill="#3c6f84">
    <animate attributeName="opacity" values="1;0" keyTimes="0;1" dur="1.2048192771084336s" begin="-0.6571741511500547s" repeatCount="indefinite"></animate>
  </rect>
</g><g transform="rotate(163.63636363636363 50 50)">
  <rect x="47.5" y="22.5" rx="2.47" ry="2.47" width="5" height="13" fill="#3c6f84">
    <animate attributeName="opacity" values="1;0" keyTimes="0;1" dur="1.2048192771084336s" begin="-0.5476451259583789s" repeatCount="indefinite"></animate>
  </rect>
</g><g transform="rotate(196.36363636363637 50 50)">
  <rect x="47.5" y="22.5" rx="2.47" ry="2.47" width="5" height="13" fill="#3c6f84">
    <animate attributeName="opacity" values="1;0" keyTimes="0;1" dur="1.2048192771084336s" begin="-0.43811610076670315s" repeatCount="indefinite"></animate>
  </rect>
</g><g transform="rotate(229.0909090909091 50 50)">
  <rect x="47.5" y="22.5" rx="2.47" ry="2.47" width="5" height="13" fill="#3c6f84">
    <animate attributeName="opacity" values="1;0" keyTimes="0;1" dur="1.2048192771084336s" begin="-0.32858707557502737s" repeatCount="indefinite"></animate>
  </rect>
</g><g transform="rotate(261.8181818181818 50 50)">
  <rect x="47.5" y="22.5" rx="2.47" ry="2.47" width="5" height="13" fill="#3c6f84">
    <animate attributeName="opacity" values="1;0" keyTimes="0;1" dur="1.2048192771084336s" begin="-0.21905805038335158s" repeatCount="indefinite"></animate>
  </rect>
</g><g transform="rotate(294.54545454545456 50 50)">
  <rect x="47.5" y="22.5" rx="2.47" ry="2.47" width="5" height="13" fill="#3c6f84">
    <animate attributeName="opacity" values="1;0" keyTimes="0;1" dur="1.2048192771084336s" begin="-0.10952902519167579s" repeatCount="indefinite"></animate>
  </rect>
</g><g transform="rotate(327.27272727272725 50 50)">
  <rect x="47.5" y="22.5" rx="2.47" ry="2.47" width="5" height="13" fill="#3c6f84">
    <animate attributeName="opacity" values="1;0" keyTimes="0;1" dur="1.2048192771084336s" begin="0s" repeatCount="indefinite"></animate>
  </rect>
</g>
<!-- [ldio] generated by https://loading.io/ --></svg>