<svg width="125" height="125" viewBox="0 0 125 125" fill="none" xmlns="http://www.w3.org/2000/svg">
<path d="M93.9134 56.4714C93.9035 57.0024 93.7894 57.5263 93.5776 58.0131C93.3657 58.4999 93.0604 58.9401 92.6789 59.3086C92.2974 59.6771 91.8472 59.9666 91.3541 60.1606C90.8611 60.3547 90.3347 60.4494 89.8051 60.4395C89.2755 60.4296 88.753 60.3151 88.2675 60.1027C87.782 59.8903 87.343 59.5841 86.9755 59.2016C86.608 58.8191 86.3192 58.3678 86.1257 57.8733C85.9322 57.3789 85.8377 56.8511 85.8476 56.3201C85.8443 56.2754 85.8443 56.2304 85.8476 56.1857V56.1453C85.8459 56.1173 85.8459 56.0893 85.8476 56.0613C85.8476 55.9918 85.8543 55.9212 85.8677 55.8495C85.8677 55.7957 85.8677 55.7453 85.8912 55.6949C85.898 55.6383 85.9081 55.5822 85.9213 55.5268C85.9213 55.4562 85.9515 55.3856 85.9683 55.3151V55.2848H85.8945H85.8007C84.9664 55.154 84.1678 54.8531 83.454 54.4008C83.259 54.6502 83.0473 54.886 82.8204 55.1067C81.5392 56.3471 79.8276 57.0401 78.0466 57.0394C77.5964 57.041 77.1471 56.9971 76.7057 56.9084C76.4355 56.8563 76.169 56.7867 75.9078 56.6999C75.3662 56.6942 74.8272 56.6243 74.302 56.4915C73.8822 57.181 73.329 57.7792 72.6749 58.2509C72.0208 58.7226 71.2792 59.0581 70.4937 59.2378C69.3712 58.9845 68.3456 58.4114 67.5403 57.5874V57.6142C70.6312 64.0379 76.1928 68.3707 83.7859 68.132C88.5563 67.9841 91.5265 64.8782 92.9446 63.1437L93.1122 62.9387C93.7827 61.258 93.8698 60.6765 93.8698 56.9252V56.8546C93.9168 56.7033 93.9168 56.5789 93.9134 56.4714Z" fill="#3C6F84"/>
<path d="M83.2528 72.1489C74.949 72.1489 67.9861 67.5639 64.0303 59.4966L63.9096 59.2916L63.7655 58.8949L57.8318 41.8896L70.4334 54.7335L70.5205 54.8176C70.6668 54.6852 70.7933 54.5324 70.896 54.3638L72.4414 51.8226L75.3178 52.5553C75.5372 52.6096 75.7622 52.6378 75.9882 52.6394H76.6286L77.232 52.8444C77.2789 52.8444 77.3694 52.8848 77.5203 52.915C77.9717 53.0054 78.4382 52.9844 78.8797 52.8538C79.3212 52.7232 79.7245 52.487 80.0547 52.1654C80.1457 52.0736 80.2318 51.9771 80.3128 51.8763L82.5522 49.0091L85.6263 50.9553C85.75 51.0316 85.8801 51.0968 86.0152 51.1503L90.0112 50.5923V54.6764L91.5433 56.2865H91.5265L97.9329 56.3268C97.9329 56.4814 97.9329 56.663 97.9329 56.8008V56.8714C97.9329 60.6664 97.8457 61.9134 97.0076 64.0782V64.532L96.0958 65.6513C92.7099 69.7959 88.6234 71.9707 83.9501 72.1153L83.2528 72.1489ZM75.3211 61.3017C77.3728 63.0059 80.0983 64.1891 83.7021 64.0748C84.5721 64.05 85.4292 63.8571 86.2264 63.5067C84.7196 62.7353 83.4911 61.5106 82.7131 60.0042C80.6034 61.003 78.2297 61.2963 75.9413 60.8412H75.8944C75.71 60.9924 75.5189 61.1504 75.3211 61.3017Z" fill="#3C6F84"/>
<path d="M85.9917 55.2478H85.918H85.8274C84.9932 55.117 84.1945 54.8161 83.4808 54.3638C83.2858 54.6132 83.0741 54.849 82.8472 55.0697C81.566 56.3101 79.8544 57.0031 78.0734 57.0025C77.6232 57.004 77.1739 56.9601 76.7325 56.8714C76.4623 56.8194 76.1957 56.7497 75.9346 56.663C75.393 56.6572 74.854 56.5873 74.3288 56.4546C73.909 57.144 73.3558 57.7423 72.7017 58.2139C72.0476 58.6856 71.306 59.0211 70.5205 59.2008C69.4044 58.9487 68.3839 58.3805 67.5805 57.5638C66.9551 56.9285 66.4787 56.1614 66.1859 55.3184C65.4964 56.1662 64.6271 56.8493 63.6413 57.3179C62.6555 57.7866 61.5779 58.0291 60.4868 58.0277C59.1985 58.028 57.9325 57.6899 56.815 57.0471C55.6975 56.4043 54.7674 55.4791 54.1173 54.3638V54.3302C54.116 53.3711 54.3207 52.423 54.7174 51.5503C54.2436 51.3262 53.781 51.092 53.3295 50.8478L53.115 50.7234C52.6322 50.4478 52.1629 50.1497 51.707 49.8293C47.5896 46.9597 44.7577 42.5865 43.8188 37.6476C43.8141 37.6153 43.8193 37.5824 43.8336 37.5532C43.8479 37.5239 43.8707 37.4997 43.899 37.4837C43.9273 37.4677 43.9598 37.4607 43.9921 37.4635C44.0245 37.4664 44.0552 37.479 44.0803 37.4997C47.3522 40.3333 52.9306 43.7586 57.5669 43.8426C57.691 43.8426 57.815 43.8426 57.939 43.8426C57.939 43.8426 64.1208 44.7502 71.1742 36.5518C71.399 36.2883 71.6433 36.0422 71.905 35.8156C74.2319 33.7954 77.0798 32.4743 80.1217 32.0038C81.0784 31.8327 82.0467 31.735 83.0182 31.7114H83.511H84.0038C102.358 31.9702 118.533 45.0527 119.127 63.3387C119.149 63.9617 119.149 64.5902 119.127 65.2244C119.075 67.0767 118.85 68.92 118.456 70.7304L116.636 77.6683L111.272 88.7609L83.7825 114.644L57.634 116.324L38.1902 111.618L35.5083 105.568L36.8761 100.082C36.1634 98.2036 35.7603 96.2213 35.6826 94.2131C35.549 90.9537 36.2577 87.715 37.7398 84.8111C39.222 81.9071 41.4273 79.4365 44.1421 77.6387C46.8568 75.8409 49.9888 74.777 53.2343 74.5502C56.4798 74.3233 59.7286 74.9412 62.6659 76.3439L62.9173 76.4649C67.8996 78.8345 73.5948 79.2129 78.8453 77.5234C84.0959 75.8338 88.5079 72.2031 91.1845 67.369C91.9348 66.0212 92.5362 64.5954 92.9781 63.1168C93.5874 61.1003 93.8991 59.0053 93.9033 56.8983V56.831C93.9033 56.71 93.9033 56.5857 93.9033 56.4646C93.9033 56.4176 93.9033 56.3739 93.9033 56.3268C93.9067 56.2821 93.9067 56.2371 93.9033 56.1924V56.1688C93.9033 56.0882 93.9033 56.0109 93.9033 55.9335" fill="#3C6F84"/>
<path d="M57.2718 120.418L35.3104 115.104L31.2607 105.968L32.6821 100.253C32.0878 98.3415 31.7496 96.3589 31.6764 94.3576C31.516 90.4039 32.3771 86.4757 34.1763 82.9538C35.9755 79.432 38.6517 76.4361 41.9455 74.2566C45.2393 72.077 49.0388 70.7878 52.9757 70.5139C56.9126 70.2401 60.8533 70.9908 64.4157 72.6934L64.6739 72.8178C67.0377 73.9479 69.6248 74.5304 72.2435 74.522C75.3963 74.5208 78.4913 73.6743 81.208 72.0703C83.9247 70.4663 86.1643 68.163 87.6946 65.3992C88.2622 64.3781 88.7239 63.3013 89.0724 62.1857L89.1428 61.9538C89.6372 60.3131 89.8901 58.6088 89.8938 56.8949L93.9166 56.8546H89.8938V56.5823V56.3873V56.1991C89.8938 56.2193 89.8938 56.2529 89.8938 56.2898V56.1924C89.8938 56.2226 89.8938 56.2562 89.8938 56.2898L97.8858 55.5839H97.9059C97.9059 55.6713 97.9261 55.8125 97.9294 55.9873C97.9328 56.1621 97.9294 56.2596 97.9294 56.3235V56.9117C97.9239 59.2029 97.6127 61.4831 97.0042 63.6916V63.7084L96.8365 64.2799C96.3081 66.0382 95.5922 67.7343 94.7011 69.3388C92.4736 73.3588 89.2147 76.7087 85.262 79.0414C81.3093 81.3741 76.8066 82.6049 72.2201 82.6062C68.392 82.6186 64.6106 81.7649 61.1572 80.1087L60.8957 79.9843C58.9075 79.0302 56.7304 78.5373 54.5262 78.5422C53.8931 78.5411 53.2605 78.5792 52.6321 78.6565C48.943 79.1211 45.5642 80.9634 43.1699 83.8158C40.7757 86.6682 39.5422 90.3209 39.7154 94.045C39.7765 95.6185 40.0924 97.1715 40.6507 98.6433L41.1 99.8266L39.759 105.225L41.0731 108.19L57.9959 112.284L82.0928 110.734L107.987 86.3541L112.854 76.2699L114.55 69.806C114.886 68.2584 115.078 66.6831 115.124 65.1V65.0496L113.448 63.4462L114.986 61.8496C113.602 47.3216 100.293 35.9938 83.9299 35.7618C83.5947 35.7618 83.3566 35.7618 83.0818 35.7618C82.3193 35.7798 81.5593 35.8574 80.8088 35.9938C78.4671 36.3401 76.2745 37.3554 74.493 38.9182C74.39 39.0122 74.2937 39.1133 74.2047 39.2207C66.6786 47.9603 59.5682 48.041 57.7311 47.8931H57.4294C57.0036 47.8931 56.5712 47.8528 56.1387 47.8023L56.3633 47.9065L60.0509 49.5872L58.3748 53.2646C58.9722 53.7531 59.7192 54.0202 60.4901 54.0209C60.9841 54.0245 61.4725 53.9167 61.9193 53.7055C62.3661 53.4943 62.7599 53.1851 63.0714 52.8007L67.6307 47.1838L69.9941 54.0243C70.0908 54.3008 70.2476 54.5523 70.4534 54.7604L70.4735 54.7806L70.5472 54.8512C70.6935 54.7188 70.82 54.566 70.9227 54.3974L72.4681 51.8562L75.3445 52.5889C75.5639 52.6432 75.7889 52.6714 76.0149 52.673H76.6552L77.2587 52.878C77.3056 52.878 77.3961 52.9184 77.547 52.9486C77.9984 53.0381 78.4647 53.0167 78.9061 52.8862C79.3474 52.7556 79.7507 52.5199 80.0814 52.199C80.1724 52.1072 80.2585 52.0107 80.3395 51.9099L82.5789 49.0427L85.653 50.9889C85.9031 51.1468 86.1825 51.252 86.4744 51.2982L86.0151 54.2259V55.268L86.2296 56.5386L86.6721 56.8747C86.5783 56.9957 86.4811 57.1134 86.3838 57.2277L86.8297 59.1907L86.6855 59.221C86.6487 59.221 86.5816 59.2411 86.4945 59.2512L86.2833 59.2781L85.7502 59.3353L85.2239 59.2546C84.9289 59.2075 84.6373 59.147 84.3523 59.0764C82.5208 60.3676 80.3357 61.0592 78.0968 61.0563C77.3808 61.0572 76.6665 60.9863 75.9647 60.8445H75.9177C74.6355 61.9902 73.0821 62.7875 71.4054 63.1605L70.9663 63.258H70.0745L69.6354 63.1605C68.0379 62.8028 66.5534 62.0545 65.3142 60.9823C62.7381 62.1981 59.8015 62.4032 57.0822 61.5572C54.3629 60.7111 52.0579 58.8753 50.6207 56.4109L50.081 55.4629V54.3671C50.081 54.1184 50.081 53.8663 50.1044 53.6209C49.8664 53.4663 49.6251 53.3049 49.3904 53.1402C44.4037 49.6733 40.9814 44.3746 39.8663 38.3938C39.705 37.5406 39.8117 36.6583 40.1717 35.8686C40.5318 35.0788 41.1273 34.4205 41.8763 33.9845C42.6252 33.5486 43.4907 33.3564 44.3532 33.4345C45.2157 33.5126 46.0328 33.8572 46.6917 34.4206C49.6452 36.9787 54.315 39.7384 57.6406 39.7989H57.778H58.368L58.4787 39.8291C59.1223 39.8291 63.1552 39.6913 68.1268 33.9063C68.4902 33.484 68.8846 33.0896 69.3068 32.7265C72.1728 30.2521 75.6669 28.6231 79.4008 28.0205C80.559 27.813 81.7313 27.6951 82.9074 27.6676C83.3231 27.6676 83.6885 27.6676 84.0707 27.6676C94.0641 27.8088 103.582 31.3651 110.849 37.7114C118.003 43.967 122.301 52.3637 123.032 61.5134L123.129 61.6076V62.5219L123.847 64.2026L123.143 64.9421C123.143 65.0799 123.143 65.2143 123.143 65.3488C123.088 67.303 122.863 69.2488 122.472 71.164V71.7018L122.234 72.1859L120.417 79.1103L114.557 91.2113L85.4854 118.607L57.2718 120.418Z" fill="#3C6F84"/>
<path d="M93.9134 56.1352C93.915 56.1486 93.915 56.1622 93.9134 56.1756V56.1991C93.9134 57.2689 93.4895 58.2949 92.7351 59.0513C91.9806 59.8078 90.9574 60.2328 89.8905 60.2328C88.8236 60.2328 87.8003 59.8078 87.0459 59.0513C86.2915 58.2949 85.8677 57.2689 85.8677 56.1991C85.8576 56.0514 85.8576 55.9031 85.8677 55.7554C85.8677 55.6837 85.8744 55.6131 85.8878 55.5436C85.8878 55.4898 85.8878 55.4394 85.9112 55.389C85.9096 55.3632 85.9096 55.3374 85.9112 55.3117C85.9096 55.2859 85.9096 55.2601 85.9112 55.2344C85.9112 55.1638 85.9414 55.0932 85.9582 55.0226V54.9789C87.5543 54.7175 89.0244 53.9489 90.1519 52.7863C91.2793 51.6237 92.0045 50.1287 92.2204 48.5217C92.2248 48.5082 92.2333 48.4965 92.2448 48.4882C92.2562 48.4799 92.27 48.4754 92.2841 48.4754C92.2982 48.4754 92.312 48.4799 92.3234 48.4882C92.3348 48.4965 92.3434 48.5082 92.3478 48.5217C92.4785 48.8578 92.6026 49.1939 92.7199 49.5301C92.7702 49.6713 92.8171 49.8124 92.8607 49.957C92.9311 50.1788 92.9982 50.4007 93.0618 50.6293C93.0786 50.6797 93.092 50.7301 93.1054 50.7839C93.1557 50.9654 93.2026 51.1469 93.2496 51.3318C93.2965 51.5167 93.3569 51.7789 93.4038 52.0041C93.4038 52.0276 93.4038 52.0478 93.4038 52.0713C93.4407 52.2495 93.4775 52.431 93.5111 52.6125C93.6049 53.1301 93.682 53.6545 93.739 54.1823C93.7636 54.4063 93.7837 54.6304 93.7994 54.8545C93.7994 54.915 93.7994 54.9755 93.7994 55.0394C93.7994 55.2478 93.8262 55.4562 93.8362 55.668V55.6882C93.9066 55.7655 93.91 55.9436 93.9134 56.1352Z" fill="#3C6F84"/>
<path d="M89.867 64.0614C88.1331 64.0651 86.4447 63.5053 85.0546 62.4661C83.6646 61.4268 82.6478 59.9639 82.1566 58.2966L82.1264 58.1857L81.8247 57.8966V57.7756L81.7878 57.7353V56.9521L81.1274 55.3117L81.181 55.2546L81.124 55.11L81.9085 54.3604V53.6881L81.9856 53.6041V51.4629L85.3715 50.915C86.1131 50.7909 86.7958 50.4324 87.3199 49.8918C87.844 49.3512 88.182 48.6568 88.2847 47.9099V47.836C88.4169 46.9514 88.8342 46.1345 89.4727 45.51C90.1113 44.8855 90.9362 44.4876 91.8214 44.3771C92.7066 44.2667 93.6035 44.4497 94.3753 44.8982C95.1471 45.3467 95.7513 46.0361 96.0957 46.8612L96.136 46.9586C96.2935 47.3586 96.431 47.7351 96.5584 48.1082C96.6288 48.3032 96.6924 48.4982 96.7528 48.6998V48.7503C96.8198 48.9587 96.8835 49.1671 96.9439 49.3788C96.9707 49.4696 96.9975 49.5637 97.021 49.6578C97.0746 49.8528 97.1249 50.0478 97.1752 50.2461V50.2931C97.2355 50.5553 97.2992 50.8209 97.3562 51.0864L97.3864 51.2343C97.4233 51.4158 97.4601 51.6007 97.4937 51.789C97.6077 52.4243 97.6982 53.0495 97.7652 53.6579C97.792 53.9033 97.8155 54.1453 97.8323 54.3907C97.8323 54.4814 97.849 54.5722 97.8557 54.6663C97.8725 54.8982 97.8825 55.1335 97.896 55.3722V55.4798C97.896 55.6579 97.896 55.8394 97.9127 56.0243V56.1352C97.9127 56.2394 97.9127 56.3436 97.9127 56.4445C97.8011 58.5074 96.9044 60.4488 95.4075 61.8685C93.9105 63.2882 91.9275 64.0779 89.867 64.0748V64.0614Z" fill="#3C6F84"/>
<path d="M118.446 70.7606C116.835 81.075 112.435 90.7494 105.725 98.7324C99.0147 106.715 90.2509 112.702 80.3856 116.041C70.5204 119.38 59.9312 119.944 49.7685 117.672C39.6059 115.401 30.2586 110.379 22.7424 103.154C23.1521 101.725 23.9404 100.433 25.0235 99.4173C26.1065 98.4011 27.4439 97.6981 28.8935 97.383C30.3432 97.0679 31.8508 97.1524 33.2564 97.6277C34.6619 98.1029 35.9128 98.9511 36.876 100.082C37.3395 101.311 37.9317 102.488 38.6427 103.591C40.2813 106.174 42.5208 108.319 45.1688 109.843C47.8167 111.366 50.794 112.222 53.8447 112.337C56.8954 112.452 59.9284 111.823 62.683 110.503C65.4376 109.184 67.8315 107.213 69.6589 104.761C69.8299 104.536 69.9942 104.304 70.1551 104.069C71.6033 101.938 71.9788 98.8484 72.438 96.1929C72.4403 96.1765 72.4467 96.1609 72.4567 96.1477C72.4666 96.1345 72.4797 96.124 72.4948 96.1173C72.5099 96.1105 72.5265 96.1078 72.543 96.1092C72.5594 96.1107 72.5752 96.1164 72.5889 96.1257C72.9241 96.3374 73.7052 96.929 73.7052 96.929C75.0656 97.9754 76.0807 99.4077 76.6187 101.04C77.1567 102.672 77.1929 104.429 76.7224 106.082C78.232 105.796 79.6543 105.161 80.8764 104.227C82.0984 103.294 83.0866 102.087 83.7624 100.704C83.8395 100.549 83.9099 100.395 83.9769 100.237C84.1837 99.7695 84.3519 99.286 84.4798 98.7912C84.8529 97.3105 84.8803 95.7635 84.5599 94.2705C84.2395 92.7774 83.58 91.3786 82.6326 90.1827C82.6171 90.1627 82.6079 90.1385 82.6061 90.1133C82.6043 90.088 82.6101 90.0627 82.6227 90.0407C82.6352 90.0188 82.6541 90.001 82.6767 89.9898C82.6994 89.9786 82.7249 89.9743 82.7499 89.9777C84.8294 90.3617 86.7555 91.3351 88.3002 92.7827C89.845 94.2304 90.9436 96.0915 91.4661 98.1459C91.5533 98.482 91.6237 98.8181 91.6773 99.1812C93.2589 98.1831 94.562 96.7988 95.4643 95.1579C96.3667 93.517 96.8389 91.6733 96.8366 89.7995C96.8366 87.7827 95.0632 84.6532 94.0072 82.8885C93.9954 82.87 93.9893 82.8484 93.9898 82.8264C93.9902 82.8044 93.9972 82.7831 94.0097 82.7651C94.0223 82.7471 94.0399 82.7332 94.0604 82.7253C94.0808 82.7173 94.1032 82.7156 94.1245 82.7204C94.7179 82.828 95.9248 83.46 96.5483 83.7793C98.342 84.6441 99.8555 85.9993 100.915 87.6888C101.974 89.3783 102.536 91.3334 102.536 93.329V93.8298C109.918 89.3289 116.388 80.3372 118.446 70.7606Z" fill="#3C6F84"/>
<path d="M62.1461 123.05C46.424 123.068 31.3055 116.982 19.9598 106.069L18.2065 104.388L18.877 102.035C19.4899 99.9061 20.6665 97.9834 22.2818 96.4712C23.8972 94.959 25.8909 93.9138 28.0511 93.4467C30.2114 92.9796 32.4575 93.1079 34.5508 93.8181C36.6441 94.5284 38.5065 95.7939 39.94 97.4803L40.8988 98.6131V99.3156C41.2162 100.048 41.5929 100.753 42.0252 101.423L42.223 101.732C43.5493 103.718 45.3324 105.354 47.4217 106.504C49.5109 107.653 51.8453 108.282 54.2278 108.338C56.6573 108.4 59.064 107.854 61.2309 106.751C63.2778 105.714 65.0593 104.219 66.4372 102.381C66.588 102.183 66.7121 102.005 66.8361 101.823C67.6172 100.674 67.9893 98.4417 68.3178 96.4719C68.3681 96.1559 68.4218 95.8433 68.4754 95.5374V95.4702C68.6013 94.8088 68.8864 94.1883 69.3058 93.6626C69.7253 93.1368 70.2665 92.7217 70.8823 92.4533C71.4982 92.185 72.1701 92.0715 72.8397 92.1228C73.5092 92.1741 74.1561 92.3885 74.7242 92.7475L75.0025 92.929H75.0595L76.1423 93.7593C77.9147 95.1098 79.2963 96.9093 80.145 98.9728V98.9425C80.1853 98.8619 80.2188 98.7812 80.2556 98.7005C80.3741 98.4263 80.4705 98.143 80.544 97.8534C80.6637 97.3742 80.7245 96.882 80.725 96.3879C80.7302 95.0575 80.2806 93.7656 79.4511 92.7273C78.9257 92.0673 78.6132 91.2626 78.5551 90.4201C78.497 89.5777 78.6961 88.7375 79.1259 88.0113C79.5557 87.2851 80.1959 86.7073 80.9612 86.3548C81.7265 86.0024 82.5808 85.8919 83.4102 86.0382C87.0381 86.6971 90.2997 88.6653 92.579 91.571C92.7214 91.0005 92.7935 90.4146 92.7935 89.8264C92.7935 89.6483 92.6226 88.4819 90.5374 84.9995C90.1293 84.3187 89.9248 83.5346 89.9484 82.7407C89.9721 81.9467 90.2227 81.1763 90.6706 80.5211C91.1185 79.8659 91.7447 79.3535 92.4747 79.045C93.2047 78.7365 94.0077 78.6448 94.7882 78.7809H94.8217C95.8811 78.9759 96.9974 79.5204 98.2445 80.1591L98.3216 80.1994C101.211 81.6152 103.554 83.9461 104.989 86.8314C109.589 82.381 113.176 76.1355 114.514 69.9169L122.422 71.3859C120.162 85.7865 112.848 98.9046 101.797 108.377C90.746 117.85 76.6848 123.055 62.1461 123.054V123.05ZM71.9049 108.408C69.9406 110.694 67.549 112.573 64.8649 113.938C64.0855 114.332 63.284 114.681 62.4646 114.983C75.7751 114.956 88.5852 109.894 98.335 100.808L98.4054 98.119C97.8392 98.9803 97.1878 99.7822 96.461 100.512C95.6673 101.305 94.788 102.006 93.8395 102.603L88.6567 105.867L87.9426 101.228C87.8655 101.437 87.7817 101.645 87.6946 101.85C87.6074 102.055 87.5001 102.29 87.3895 102.522C86.4355 104.463 85.046 106.155 83.3301 107.466C81.6142 108.777 79.6186 109.671 77.5 110.079L71.097 111.262L71.9049 108.408ZM27.8245 102.324C30.6962 104.779 33.8204 106.919 37.1441 108.711L37.7811 109.047C36.8476 108.038 36.0052 106.948 35.2634 105.79L34.6231 104.781V104.714C34.1779 103.932 33.7794 103.124 33.4297 102.294C32.6591 101.6 31.6585 101.217 30.6226 101.222C29.5866 101.226 28.5893 101.617 27.8245 102.317V102.324Z" fill="#3C6F84"/>
<path d="M62.1496 123.413C28.599 123.413 1.30396 96.045 1.30396 62.4042C1.30396 28.7634 28.599 1.39499 62.1496 1.39499C95.7001 1.39499 122.995 28.7634 122.995 62.4042C122.995 96.045 95.7001 123.413 62.1496 123.413ZM62.1496 9.46232C33.0375 9.46232 9.34965 33.2139 9.34965 62.4042C9.34965 91.5945 33.0375 115.346 62.1496 115.346C91.2616 115.346 114.949 91.5979 114.949 62.4042C114.949 33.2105 91.2649 9.46232 62.1496 9.46232Z" fill="#3C6F84"/>
<path d="M54.5397 114.042H54.124C50.8567 113.968 47.658 113.088 44.8105 111.48C41.963 109.872 39.5545 107.585 37.7979 104.822L37.637 104.563C36.9899 103.523 36.4411 102.424 35.9977 101.282C35.1387 100.321 34.0386 99.608 32.8117 99.2175C31.5849 98.8271 30.2761 98.7734 29.0215 99.0619C27.7669 99.3505 26.6123 99.9709 25.6779 100.858C24.7434 101.746 24.0632 102.868 23.7079 104.109L23.2486 105.712L22.0485 104.559C16.3675 99.1482 11.8497 92.6297 8.77242 85.4042C5.69512 78.1787 4.12331 70.3987 4.1535 62.542C4.1535 30.4811 30.1679 4.38998 62.1496 4.38998C94.1312 4.38998 120.146 30.4777 120.146 62.542C120.146 62.8983 120.146 63.2479 120.146 63.6009L120.551 64.0076L120.126 64.4446C120.052 66.8087 119.833 69.1661 119.472 71.5035V71.6716L119.418 71.7791C117.326 81.3356 110.923 90.6029 103.072 95.3727L101.493 96.3307L101.557 93.9777C101.547 92.1943 101.043 90.4487 100.102 88.9353C99.1608 87.4219 97.8192 86.2002 96.2265 85.4062C97.135 87.1575 97.8725 88.9962 97.8691 90.4785C97.8664 92.5228 97.3472 94.5331 96.36 96.3218C95.3728 98.1105 93.9498 99.6192 92.2237 100.707L90.9264 101.514L90.6951 99.998C90.6448 99.6787 90.5811 99.3627 90.504 99.0602C90.1205 97.5585 89.3977 96.1654 88.3914 94.9886C87.3852 93.8118 86.1225 92.8829 84.701 92.2735C85.8126 94.5848 86.0784 97.2143 85.4519 99.7022C85.316 100.251 85.1355 100.787 84.9122 101.306C84.8385 101.477 84.758 101.642 84.6708 101.823C83.9258 103.344 82.8389 104.67 81.4957 105.698C80.1524 106.726 78.5896 107.427 76.9302 107.746L75.3311 108.049L75.7636 106.489C76.1743 105.051 76.1499 103.522 75.6933 102.098C75.2367 100.674 74.3686 99.4176 73.199 98.4887C72.8034 100.842 72.3073 103.4 70.9965 105.326C70.8255 105.578 70.6613 105.823 70.4702 106.062C68.6191 108.543 66.2161 110.557 63.4523 111.944C60.6885 113.33 57.6402 114.051 54.5498 114.049L54.5397 114.042ZM39.6484 103.975C41.2252 106.374 43.3549 108.358 45.8575 109.758C48.3601 111.158 51.1621 111.933 54.0266 112.018C56.8912 112.103 59.734 111.495 62.3149 110.246C64.8957 108.997 67.1388 107.143 68.8543 104.842C69.0186 104.623 69.1896 104.405 69.327 104.169C70.4869 102.462 70.8959 99.9946 71.2915 97.6081C71.3451 97.2954 71.3954 96.9896 71.4491 96.6904C71.4819 96.5061 71.5605 96.3331 71.6777 96.1874C71.7949 96.0417 71.9469 95.9279 72.1195 95.8568C72.2818 95.7892 72.458 95.7618 72.6331 95.7771C72.8081 95.7923 72.977 95.8496 73.1253 95.9442C73.3733 96.0954 73.7723 96.3879 74.0405 96.5896L74.312 96.798C75.4831 97.6881 76.4318 98.8389 77.0834 100.16C77.735 101.48 78.0716 102.935 78.0667 104.408C78.0677 104.721 78.0521 105.034 78.0197 105.346C80.1348 104.541 81.8663 102.962 82.8639 100.926C82.9343 100.785 82.9946 100.647 83.055 100.509C83.2372 100.088 83.3841 99.6532 83.4942 99.2081C83.8263 97.8769 83.8479 96.4869 83.5572 95.1461C83.2665 93.8052 82.6713 92.5496 81.818 91.4769C81.676 91.2967 81.5914 91.0779 81.5753 90.8488C81.5591 90.6198 81.6122 90.3912 81.7275 90.1928C81.8428 89.9924 82.0172 89.8328 82.2267 89.7359C82.4362 89.639 82.6705 89.6095 82.8974 89.6516C85.0939 90.0527 87.1363 91.0568 88.7976 92.5522C90.4589 94.0477 91.6739 95.9758 92.3075 98.1223C92.4986 97.9576 92.6864 97.7862 92.8707 97.6013C93.8067 96.6652 94.5489 95.5528 95.0546 94.3282C95.5603 93.1035 95.8196 91.7906 95.8175 90.4651C95.8175 88.5693 93.8061 85.1844 93.1356 84.0785C93.0263 83.8942 92.9719 83.6825 92.9789 83.4683C92.9858 83.254 93.0537 83.0463 93.1746 82.8695C93.2956 82.6928 93.4644 82.5544 93.6613 82.4708C93.8581 82.3872 94.0747 82.3619 94.2854 82.3978C94.9559 82.5188 95.8879 82.986 96.8802 83.4936L96.9975 83.5541C98.7502 84.411 100.26 85.6958 101.388 87.2904C102.516 88.8851 103.227 90.7385 103.454 92.6803C110.213 87.9407 115.617 79.7154 117.44 71.2346C117.789 68.9953 118.001 66.7367 118.074 64.4715V64.421L117.702 64.0479L118.094 63.6143C118.094 63.2614 118.094 62.9084 118.094 62.5488C118.094 31.5971 92.9814 6.41354 62.1094 6.41354C31.2373 6.41354 6.1247 31.5937 6.1247 62.5488C6.1019 69.8786 7.52457 77.1406 10.3109 83.9171C13.0972 90.6937 17.1922 96.851 22.3602 102.035C23.0321 100.659 24.0347 99.472 25.2779 98.5811C26.521 97.6903 27.9656 97.1235 29.4816 96.9318C30.9976 96.74 32.5374 96.9294 33.9622 97.4829C35.387 98.0363 36.6522 98.9365 37.6437 100.102L37.8817 100.385V100.573C38.3102 101.674 38.8482 102.729 39.4875 103.722L39.6484 103.975Z" fill="white"/>
<path d="M93.9134 57.1436C93.9035 57.6747 93.7894 58.1986 93.5776 58.6854C93.3657 59.1722 93.0604 59.6124 92.6789 59.9809C92.2974 60.3493 91.8472 60.6389 91.3541 60.8329C90.8611 61.0269 90.3347 61.1217 89.8051 61.1118C89.2755 61.1018 88.753 60.9874 88.2675 60.775C87.782 60.5626 87.343 60.2564 86.9755 59.8739C86.608 59.4914 86.3192 59.04 86.1257 58.5456C85.9322 58.0512 85.8377 57.5234 85.8476 56.9924C85.8443 56.9476 85.8443 56.9027 85.8476 56.8579V56.8176C85.8459 56.7896 85.8459 56.7615 85.8476 56.7336C85.8476 56.6641 85.8543 56.5935 85.8677 56.5218C85.8677 56.468 85.8677 56.4176 85.8912 56.3672C85.898 56.3106 85.9081 56.2545 85.9213 56.1991C85.9213 56.1285 85.9515 56.0579 85.9683 55.9873V55.9571H85.8945H85.8007C84.9664 55.8263 84.1678 55.5254 83.454 55.073C83.259 55.3224 83.0473 55.5583 82.8204 55.7789C81.5392 57.0194 79.8276 57.7123 78.0466 57.7117C77.5964 57.7133 77.1471 57.6694 76.7057 57.5806C76.4355 57.5286 76.169 57.459 75.9078 57.3722C75.3662 57.3665 74.8272 57.2965 74.302 57.1638C73.8822 57.8533 73.329 58.4515 72.6749 58.9232C72.0208 59.3948 71.2792 59.7304 70.4937 59.9101C69.3712 59.6568 68.3456 59.0836 67.5403 58.2596V58.2865C70.6312 64.7101 76.1928 69.043 83.7859 68.8043C88.5563 68.6564 91.5265 65.5505 92.9446 63.816L93.1122 63.611C93.7827 61.9303 93.8698 61.3487 93.8698 57.5974V57.5268C93.9168 57.3756 93.9168 57.2512 93.9134 57.1436Z" fill="#3C6F84"/>
<path d="M83.2662 69.7959C76.1189 69.7959 70.1048 65.7892 66.6954 58.7269L66.6652 58.6764L66.625 58.5655L65.1399 54.3167L68.2911 57.5269C68.9067 58.1572 69.6784 58.612 70.5272 58.8445C71.7587 58.5037 72.8146 57.7057 73.4806 56.6126L73.8661 55.9773L74.5869 56.1588C75.0349 56.2742 75.4954 56.334 75.958 56.3369H76.1156L76.2664 56.3873C76.4859 56.46 76.7099 56.5184 76.9369 56.5621C77.3111 56.6366 77.6918 56.6738 78.0734 56.6731C79.5946 56.6756 81.0569 56.0836 82.1498 55.0226C82.3436 54.835 82.524 54.6339 82.6896 54.4209L83.2494 53.705L84.0171 54.1924C84.5745 54.5443 85.1933 54.7872 85.8408 54.9083L86.9706 54.7503L86.9974 56.0714L86.9471 56.226C86.9471 56.2663 86.927 56.3067 86.9203 56.347V56.3907V56.4445V56.4714L87.2991 56.868L86.8935 57.2613C86.9152 58.0637 87.254 58.8245 87.8352 59.3764C88.4165 59.9283 89.1925 60.226 89.9927 60.2042C90.7929 60.1824 91.5517 59.8427 92.1021 59.2599C92.6525 58.6771 92.9495 57.8989 92.9277 57.0966H94.9392C94.9392 57.2277 94.9392 57.3621 94.9392 57.4899V57.5605C94.9392 61.3925 94.8453 62.1084 94.1111 63.9471L94.0541 64.0849L93.7859 64.4211C90.9766 67.8598 87.6444 69.6615 83.8797 69.7791C83.6651 69.7926 83.474 69.7959 83.2662 69.7959ZM70.259 60.858C73.5175 65.5135 78.2242 67.9472 83.8026 67.769C86.8599 67.6749 89.6122 66.2127 91.9857 63.4227L92.2271 63.137C92.2472 63.1168 92.264 63.0933 92.2807 63.0731C92.5511 62.4494 92.7285 61.7891 92.807 61.1135C92.0716 61.6324 91.2114 61.9453 90.3152 62.0198C89.4189 62.0942 88.5191 61.9277 87.7085 61.5372C86.8978 61.1467 86.2058 60.5465 85.7036 59.7984C85.2015 59.0503 84.9075 58.1815 84.8519 57.2815V57.2445V56.9991C84.8519 56.9453 84.8519 56.8983 84.8519 56.8479V56.7672C84.4602 56.6585 84.0788 56.5157 83.7121 56.3403L83.5545 56.4949C82.0867 57.9199 80.1231 58.7156 78.0801 58.7134C77.5656 58.7144 77.0524 58.6637 76.548 58.5622C76.29 58.5122 76.0348 58.4482 75.7837 58.3706C75.4536 58.3606 75.1244 58.3303 74.7981 58.2798C73.8025 59.5941 72.3791 60.5171 70.7752 60.8882L70.6646 60.9118H70.4434L70.3327 60.8882L70.259 60.858Z" fill="white"/>
<path d="M85.9917 55.9201H85.918H85.8274C84.9932 55.7893 84.1945 55.4884 83.4808 55.036C83.2858 55.2854 83.0741 55.5213 82.8472 55.7419C81.566 56.9824 79.8544 57.6754 78.0734 57.6747C77.6232 57.6763 77.1739 57.6324 76.7325 57.5436C76.4623 57.4916 76.1957 57.422 75.9346 57.3352C75.393 57.3295 74.854 57.2596 74.3288 57.1268C73.909 57.8163 73.3558 58.4145 72.7017 58.8862C72.0476 59.3579 71.306 59.6934 70.5205 59.8731C69.4044 59.621 68.3839 59.0528 67.5805 58.2361C66.9551 57.6008 66.4787 56.8337 66.1859 55.9907C65.4964 56.8385 64.6271 57.5216 63.6413 57.9902C62.6555 58.4589 61.5779 58.7013 60.4868 58.7C59.1985 58.7003 57.9325 58.3622 56.815 57.7194C55.6975 57.0765 54.7674 56.1514 54.1173 55.036V55.0024C54.116 54.0434 54.3207 53.0952 54.7174 52.2226C54.2436 51.9985 53.781 51.7643 53.3295 51.52L53.115 51.3957C52.6322 51.12 52.1629 50.822 51.707 50.5015C47.5896 47.632 44.7577 43.2587 43.8188 38.3199C43.8141 38.2876 43.8193 38.2547 43.8336 38.2255C43.8479 38.1962 43.8707 38.172 43.899 38.156C43.9273 38.14 43.9598 38.133 43.9921 38.1358C44.0245 38.1386 44.0552 38.1512 44.0803 38.172C47.3522 41.0056 52.9306 44.4309 57.5669 44.5149C57.691 44.5149 57.815 44.5149 57.939 44.5149C57.939 44.5149 64.1745 44.851 71.1742 37.224C71.4024 36.9638 71.6465 36.7179 71.905 36.4879C74.2319 34.4677 77.0798 33.1465 80.1217 32.6761C81.0784 32.505 82.0467 32.4072 83.0182 32.3836H83.511H84.0038C102.358 32.6425 118.533 45.725 119.127 64.011C119.149 64.6339 119.149 65.2625 119.127 65.8967C119.075 67.749 118.85 69.5923 118.456 71.4027L116.636 78.3406L111.272 89.4331L83.7825 115.316L57.634 116.997L38.1902 112.291L35.5083 106.24L36.8761 100.754C36.1634 98.8758 35.7603 96.8936 35.6826 94.8853C35.549 91.626 36.2577 88.3873 37.7398 85.4833C39.222 82.5794 41.4273 80.1088 44.1421 78.311C46.8568 76.5132 49.9888 75.4493 53.2343 75.2224C56.4798 74.9956 59.7286 75.6135 62.6659 77.0162L62.9173 77.1372C67.8996 79.5067 73.5948 79.8852 78.8453 78.1956C84.0959 76.5061 88.5079 72.8753 91.1845 68.0413C91.9348 66.6935 92.5362 65.2677 92.9781 63.7891C93.5874 61.7726 93.8991 59.6776 93.9033 57.5705V57.5033C93.9033 57.3823 93.9033 57.2579 93.9033 57.1369C93.9033 57.0899 93.9033 57.0462 93.9033 56.9991C93.9067 56.9543 93.9067 56.9094 93.9033 56.8646V56.8411C93.9033 56.7604 93.9033 56.6831 93.9033 56.6058" fill="#3C6F84"/>
<path d="M57.5367 118.045L57.3892 118.008L37.4627 113.185L34.4456 106.364L35.8334 100.811C35.1497 98.9207 34.7618 96.9353 34.6836 94.9257C34.542 91.4919 35.2879 88.0797 36.849 85.0201C38.4101 81.9606 40.7334 79.3575 43.5934 77.4635C46.4534 75.5695 49.7531 74.4489 53.1724 74.2103C56.5916 73.9717 60.0143 74.6233 63.1084 76.1019L63.3598 76.2229C66.1305 77.5543 69.1644 78.2436 72.2369 78.2397C75.93 78.2407 79.5562 77.251 82.7394 75.3732C85.9225 73.4954 88.5467 70.798 90.3397 67.5606C91.0333 66.3187 91.5951 65.0073 92.0159 63.6479L92.0595 63.5C92.6405 61.5773 92.9375 59.5796 92.9411 57.5705L93.9469 57.5201H92.9411C92.9411 57.3924 92.9411 57.2781 92.9411 57.1638V56.9991V56.8613C92.9452 56.8042 92.9452 56.7469 92.9411 56.6898L94.9526 56.5151C94.9633 56.6122 94.9689 56.7098 94.9693 56.8075C94.9727 56.8702 94.9727 56.933 94.9693 56.9957C94.9693 57.0495 94.9693 57.0999 94.9693 57.1504C94.9693 57.2646 94.9693 57.3857 94.9693 57.4865V57.5604C94.9656 59.7229 94.6529 61.8736 94.0407 63.9471L94.0039 64.0748C93.5393 65.6232 92.9088 67.1166 92.1232 68.5287C90.1573 72.0784 87.2807 75.0367 83.7913 77.0969C80.3019 79.1572 76.3266 80.2446 72.2771 80.2465C68.9049 80.2562 65.5739 79.5036 62.5318 78.0448L62.277 77.9237C59.4964 76.5957 56.4207 76.0107 53.3483 76.2255C50.2758 76.4404 47.3109 77.4477 44.741 79.1499C42.1712 80.852 40.0837 83.1912 38.681 85.9406C37.2783 88.6899 36.6081 91.7561 36.7352 94.8416C36.8071 96.742 37.1888 98.6178 37.865 100.395L37.9756 100.69L36.6045 106.176L38.9511 111.454L57.7647 116.008L83.4003 114.361L110.491 88.8516L115.731 78.0179L117.521 71.201C117.884 69.4509 118.084 67.6706 118.117 65.8832C118.117 65.4059 118.117 64.9286 118.117 64.4547L117.688 64.0446L118.087 63.6244C117.306 46.8948 102.408 33.6509 83.9735 33.3887C83.6383 33.3887 83.3366 33.3887 83.0215 33.3887C82.1028 33.4117 81.1871 33.505 80.2826 33.6677C77.4195 34.1121 74.7391 35.3563 72.5487 37.2576C72.3332 37.4492 72.1305 37.6547 71.9419 37.8728L71.9117 37.903C64.8717 45.5905 58.4854 45.5435 57.9155 45.5199C57.7848 45.5199 57.6574 45.5199 57.53 45.5199C53.477 45.4393 48.8507 43.0359 45.4246 40.5249C46.6567 44.2401 49.0576 47.4543 52.2668 49.6847C52.7026 49.9906 53.1485 50.2763 53.6077 50.5318L53.6379 50.5486L53.8055 50.6461C54.2514 50.8948 54.6939 51.1167 55.1264 51.3183L56.0449 51.7352L55.6259 52.6562C55.3222 53.3225 55.1514 54.0418 55.123 54.7739C56.0254 56.1855 57.4452 57.1846 59.0759 57.5557C60.7067 57.9267 62.4175 57.6399 63.8392 56.7571C64.4391 56.3872 64.9719 55.9178 65.4148 55.3688L66.5546 53.9638L67.148 55.6747C67.3926 56.3757 67.7887 57.0139 68.3079 57.5436L68.3347 57.5705C68.9448 58.1909 69.7084 58.6376 70.5473 58.8647C71.7788 58.5239 72.8348 57.7259 73.5007 56.6327L73.8862 55.9974L74.607 56.1789C75.0551 56.2943 75.5155 56.3542 75.9781 56.3571H76.1357L76.2865 56.4075C76.5061 56.4802 76.73 56.5386 76.957 56.5823C77.3313 56.6568 77.7119 56.6939 78.0935 56.6932C79.6147 56.6958 81.077 56.1037 82.17 55.0428C82.3637 54.8551 82.5441 54.6541 82.7097 54.4411L83.2695 53.7251L84.0372 54.2125C84.5915 54.5627 85.2069 54.8045 85.8509 54.9251H86.0084V55.9335L86.1559 56.9151H86.0788H85.9615L85.8274 56.9319L85.6967 56.9117C85.0163 56.8038 84.3547 56.5989 83.7322 56.3033L83.5746 56.4579C82.1068 57.8829 80.1432 58.6786 78.1002 58.6764C77.5858 58.6774 77.0725 58.6267 76.5681 58.5252C76.31 58.4756 76.0548 58.4116 75.8038 58.3336C75.4737 58.3236 75.1446 58.2933 74.8182 58.2428C73.8226 59.5571 72.3992 60.4801 70.7954 60.8512L70.6847 60.8748H70.4635L70.3495 60.8512C69.0455 60.5583 67.8535 59.8941 66.9167 58.9386L66.8898 58.9117C66.5285 58.5419 66.2082 58.1339 65.9344 57.6949C65.6184 57.9677 65.2822 58.216 64.9287 58.4378C63.9775 59.0259 62.9187 59.4174 61.8144 59.5892C60.7101 59.761 59.5827 59.7096 58.4985 59.438C57.4143 59.1665 56.3952 58.6803 55.5012 58.008C54.6071 57.3358 53.8562 56.491 53.2926 55.5234L53.1552 55.2881V55.0125C53.1513 54.2314 53.2643 53.4541 53.4904 52.7066C53.2893 52.6024 53.0848 52.4915 52.8803 52.3705C52.8032 52.3301 52.7227 52.2831 52.6422 52.2326C52.1494 51.9503 51.6365 51.6343 51.1706 51.2982C46.8307 48.2812 43.8528 43.6695 42.8835 38.4644C42.8397 38.2268 42.8704 37.9814 42.9714 37.7619C43.0724 37.5425 43.2386 37.3598 43.4473 37.239C43.656 37.1182 43.8969 37.0651 44.1369 37.0871C44.3769 37.1091 44.6042 37.2051 44.7876 37.3619C48.2339 40.3468 53.544 43.3888 57.6406 43.4628H57.996C58.0496 43.4628 63.8928 43.6275 70.4367 36.4946L70.4668 36.4644C70.7135 36.1834 70.9778 35.9184 71.258 35.6711C73.7163 33.5385 76.7223 32.1409 79.9339 31.6374C80.9416 31.4576 81.9614 31.3542 82.9846 31.3282C83.3366 31.3282 83.6718 31.3282 84.0138 31.3282C93.3133 31.4592 102.143 34.7635 108.875 40.6291C115.727 46.6057 119.707 54.7201 120.105 63.5202H120.122V63.742L120.3 64.1622L120.132 64.3404C120.132 64.8479 120.132 65.3488 120.132 65.8732C120.08 67.7521 119.856 69.6221 119.462 71.4598V71.5909L119.401 71.7186L117.581 78.6599L117.538 78.7473L112.087 90.0853L84.1982 116.344L57.5367 118.045ZM44.8178 38.1081C44.8165 38.1192 44.8165 38.1305 44.8178 38.1417C44.812 38.1311 44.8075 38.1198 44.8044 38.1081H44.8178Z" fill="white"/>
<path d="M93.9134 56.8075C93.915 56.8209 93.915 56.8344 93.9134 56.8478V56.8714C93.9134 57.9412 93.4895 58.9671 92.7351 59.7236C91.9806 60.48 90.9574 60.905 89.8905 60.905C88.8236 60.905 87.8003 60.48 87.0459 59.7236C86.2915 58.9671 85.8677 57.9412 85.8677 56.8714C85.8576 56.7236 85.8576 56.5754 85.8677 56.4277C85.8677 56.3559 85.8744 56.2854 85.8878 56.2159C85.8878 56.1621 85.8878 56.1117 85.9112 56.0613C85.9096 56.0355 85.9096 56.0097 85.9112 55.984C85.9096 55.9582 85.9096 55.9324 85.9112 55.9066C85.9112 55.8361 85.9414 55.7655 85.9582 55.6949V55.6512C87.5543 55.3898 89.0244 54.6212 90.1519 53.4586C91.2793 52.296 92.0045 50.801 92.2204 49.1939C92.2248 49.1805 92.2333 49.1688 92.2448 49.1605C92.2562 49.1522 92.27 49.1477 92.2841 49.1477C92.2982 49.1477 92.312 49.1522 92.3234 49.1605C92.3348 49.1688 92.3434 49.1805 92.3478 49.1939C92.4785 49.5301 92.6026 49.8662 92.7199 50.2024C92.7702 50.3435 92.8171 50.4847 92.8607 50.6293C92.9311 50.8511 92.9982 51.073 93.0618 51.3015C93.0786 51.352 93.092 51.4024 93.1054 51.4562C93.1557 51.6377 93.2026 51.8192 93.2496 52.0041C93.2965 52.1889 93.3569 52.4511 93.4038 52.6763C93.4038 52.6999 93.4038 52.72 93.4038 52.7436C93.4407 52.9217 93.4775 53.1032 93.5111 53.2848C93.6049 53.8024 93.682 54.3268 93.739 54.8545C93.7636 55.0786 93.7837 55.3027 93.7994 55.5268C93.7994 55.5873 93.7994 55.6478 93.7994 55.7117C93.7994 55.9201 93.8262 56.1285 93.8362 56.3403V56.3604C93.9066 56.4377 93.91 56.6159 93.9134 56.8075Z" fill="#3C6F84"/>
<path d="M89.8904 61.7118C89.6084 61.7115 89.327 61.6879 89.0489 61.6412C88.1199 61.4858 87.2531 61.072 86.5472 60.4468C85.8413 59.8216 85.3247 59.0102 85.0562 58.105C84.9792 57.8442 84.9221 57.5779 84.8853 57.3084L84.8484 57.2747V57.2243V57.0394L84.6741 56.6294L84.6908 56.6092L84.6741 56.5621L84.8551 56.3873C84.8551 56.3604 84.8551 56.3336 84.8551 56.3067C84.8551 56.2226 84.8551 56.1218 84.8819 56.0209C84.8819 55.9705 84.8819 55.91 84.9087 55.8462V55.5403L84.9858 55.4529V54.7234L85.834 54.5856C87.2163 54.3586 88.4893 53.6926 89.4658 52.6856C90.4422 51.6787 91.0705 50.3841 91.2581 48.9923C91.2893 48.7584 91.3964 48.5412 91.5628 48.3744C91.7292 48.2075 91.9457 48.1001 92.179 48.0687C92.4122 48.0374 92.6493 48.0838 92.8537 48.2009C93.058 48.318 93.2183 48.4992 93.3098 48.7166C93.4606 49.1099 93.588 49.4562 93.7054 49.7957C93.7557 49.9402 93.8093 50.0982 93.8562 50.2562L93.8763 50.3268C93.94 50.5251 94.0004 50.7268 94.0574 50.9284C94.0775 50.9957 94.0976 51.0595 94.1144 51.1301C94.1613 51.2948 94.2082 51.4663 94.2585 51.6747C94.3155 51.92 94.3725 52.1553 94.4228 52.3906V52.4276V52.4747C94.4597 52.6562 94.4965 52.8377 94.5301 53.0226C94.6306 53.5772 94.7111 54.1285 94.7681 54.6663C94.7949 54.8915 94.815 55.1134 94.8318 55.3386C94.8318 55.4125 94.8318 55.4865 94.8485 55.5638C94.8485 55.752 94.8754 55.9739 94.8854 56.1957V56.2361C94.8854 56.4109 94.8854 56.5722 94.9022 56.7638V56.8075C94.9022 56.8378 94.9022 56.8781 94.9022 56.9218C94.8671 57.6313 94.683 58.3254 94.3618 58.9585C94.0405 59.5917 93.5895 60.1496 93.0382 60.5958C92.1484 61.32 91.0365 61.7142 89.8904 61.7118ZM86.9068 57.2176C86.9269 57.3218 86.9537 57.4294 86.9839 57.5336C87.1779 58.2281 87.613 58.8302 88.2107 59.2314C88.8084 59.6326 89.5294 59.8065 90.2437 59.7218C90.958 59.637 91.6186 59.2991 92.1064 58.7691C92.5942 58.2391 92.8772 57.5518 92.9042 56.831V56.7235C92.9042 56.589 92.9042 56.4546 92.9042 56.3235V56.263C92.9042 56.0915 92.9042 55.8932 92.8706 55.6949C92.8706 55.6243 92.8706 55.584 92.8706 55.5403V55.5067C92.8539 55.2982 92.8337 55.0898 92.8136 54.8814C92.76 54.394 92.6862 53.873 92.5957 53.3856C92.5656 53.2142 92.5287 53.0495 92.4918 52.868V52.8377V52.7839C92.4516 52.5789 92.4013 52.3772 92.3544 52.1755C92.1387 52.577 91.8909 52.9603 91.6135 53.3218C90.7331 54.4804 89.5723 55.3944 88.241 55.9772L87.3157 56.8613L86.9068 57.2176ZM92.941 56.5857C92.941 56.6092 92.941 56.6327 92.941 56.6562V56.5857Z" fill="white"/>
<path d="M118.446 71.4329C116.835 81.7473 112.435 91.4216 105.725 99.4047C99.0147 107.388 90.2509 113.374 80.3856 116.713C70.5204 120.052 59.9312 120.617 49.7685 118.345C39.6059 116.073 30.2586 111.052 22.7424 103.827C23.1521 102.397 23.9404 101.106 25.0235 100.09C26.1065 99.0734 27.4439 98.3704 28.8935 98.0553C30.3432 97.7402 31.8508 97.8247 33.2564 98.3C34.6619 98.7752 35.9128 99.6233 36.876 100.754C37.3395 101.983 37.9317 103.16 38.6427 104.264C40.2813 106.846 42.5208 108.992 45.1688 110.515C47.8167 112.039 50.794 112.895 53.8447 113.01C56.8954 113.125 59.9284 112.495 62.683 111.176C65.4376 109.856 67.8315 107.885 69.6589 105.433C69.8299 105.208 69.9942 104.976 70.1551 104.741C71.6033 102.61 71.9788 99.5207 72.438 96.8652C72.4403 96.8488 72.4467 96.8332 72.4567 96.82C72.4666 96.8068 72.4797 96.7963 72.4948 96.7896C72.5099 96.7828 72.5265 96.7801 72.543 96.7815C72.5594 96.783 72.5752 96.7887 72.5889 96.798C72.9241 97.0097 73.7052 97.6013 73.7052 97.6013C75.0656 98.6477 76.0807 100.08 76.6187 101.712C77.1567 103.345 77.1929 105.101 76.7224 106.754C78.232 106.468 79.6543 105.833 80.8764 104.9C82.0984 103.966 83.0866 102.76 83.7624 101.376C83.8395 101.222 83.9099 101.067 83.9769 100.909C84.1837 100.442 84.3519 99.9583 84.4798 99.4635C84.8529 97.9828 84.8803 96.4358 84.5599 94.9427C84.2395 93.4497 83.58 92.0509 82.6326 90.855C82.6171 90.835 82.6079 90.8108 82.6061 90.7855C82.6043 90.7603 82.6101 90.735 82.6227 90.713C82.6352 90.691 82.6541 90.6733 82.6767 90.6621C82.6994 90.6508 82.7249 90.6466 82.7499 90.65C84.8294 91.0339 86.7555 92.0074 88.3002 93.455C89.845 94.9026 90.9436 96.7638 91.4661 98.8182C91.5533 99.1543 91.6237 99.4904 91.6773 99.8535C93.2589 98.8554 94.562 97.4711 95.4643 95.8302C96.3667 94.1893 96.8389 92.3456 96.8366 90.4718C96.8366 88.455 95.0632 85.3255 94.0072 83.5608C93.9954 83.5423 93.9893 83.5207 93.9898 83.4987C93.9902 83.4767 93.9972 83.4554 94.0097 83.4374C94.0223 83.4194 94.0399 83.4055 94.0604 83.3976C94.0808 83.3896 94.1032 83.3879 94.1245 83.3927C94.7179 83.5003 95.9248 84.1322 96.5483 84.4516C98.342 85.3164 99.8555 86.6716 100.915 88.3611C101.974 90.0506 102.536 92.0057 102.536 94.0013V94.5021C109.918 90.0012 116.388 81.0095 118.446 71.4329Z" fill="#3C6F84"/>
<path d="M62.1463 120.697C47.2028 120.719 32.8319 114.936 22.0485 104.563L21.6094 104.143L21.777 103.554C22.2361 101.949 23.1208 100.498 24.3368 99.357C25.5528 98.2157 27.0546 97.4262 28.6825 97.0728C30.3105 96.7193 32.0035 96.8149 33.5815 97.3496C35.1595 97.8842 36.5634 98.8378 37.6438 100.109L37.8818 100.391V100.58C38.3103 101.681 38.8483 102.736 39.4876 103.729L39.6485 103.981C41.2252 106.381 43.3549 108.364 45.8575 109.764C48.3602 111.164 51.1622 111.94 54.0267 112.025C56.8912 112.11 59.7341 111.502 62.3149 110.253C64.8958 109.004 67.1388 107.15 68.8544 104.848C69.0187 104.63 69.1896 104.412 69.3271 104.176C70.487 102.469 70.896 100.001 71.2916 97.6148C71.3452 97.3022 71.3955 96.9963 71.4491 96.6971C71.4819 96.5128 71.5606 96.3398 71.6778 96.1941C71.795 96.0484 71.9469 95.9347 72.1196 95.8635C72.2819 95.7959 72.4581 95.7686 72.6331 95.7838C72.8082 95.799 72.9771 95.8563 73.1253 95.9509C73.3734 96.1022 73.7723 96.3946 74.0405 96.5963L74.3121 96.8047C75.4831 97.6948 76.4319 98.8456 77.0835 100.166C77.7351 101.487 78.0717 102.941 78.0667 104.415C78.0678 104.728 78.0521 105.041 78.0198 105.353C80.1349 104.548 81.8664 102.968 82.864 100.932C82.9344 100.791 82.9947 100.653 83.0551 100.516C83.2373 100.095 83.3842 99.6599 83.4942 99.2148C83.8264 97.8837 83.848 96.4936 83.5572 95.1528C83.2665 93.8119 82.6714 92.5563 81.818 91.4836C81.6761 91.3035 81.5915 91.0846 81.5753 90.8556C81.5592 90.6265 81.6122 90.3979 81.7275 90.1995C81.8428 89.9992 82.0173 89.8395 82.2268 89.7426C82.4363 89.6457 82.6706 89.6163 82.8975 89.6584C85.0939 90.0594 87.1364 91.0635 88.7977 92.5589C90.4589 94.0544 91.674 95.9826 92.3076 98.1291C92.4987 97.9644 92.6864 97.7929 92.8708 97.6081C93.8068 96.672 94.5489 95.5596 95.0546 94.3349C95.5603 93.1102 95.8196 91.7973 95.8176 90.4718C95.8176 88.576 93.8061 85.1911 93.1357 84.0852C93.0256 83.9019 92.9703 83.6908 92.9763 83.4769C92.9822 83.263 93.0492 83.0553 93.1692 82.8784C93.2911 82.7012 93.4609 82.5625 93.6586 82.4786C93.8563 82.3947 94.0738 82.369 94.2855 82.4045C94.956 82.5255 95.888 82.9927 96.8803 83.5003L96.9976 83.5608C98.7502 84.4177 100.26 85.7025 101.388 87.2972C102.516 88.8918 103.227 90.7452 103.454 92.687C110.216 87.9441 115.62 79.712 117.444 71.2279L119.422 71.5943C117.273 85.2823 110.32 97.7511 99.8156 106.755C89.3112 115.758 75.9456 120.705 62.1262 120.704L62.1463 120.697ZM23.899 103.531C34.2616 113.275 47.9398 118.691 62.1463 118.674C84.8586 118.674 104.554 105.343 113.314 85.46C110.481 89.5172 106.944 92.9861 103.055 95.3593L101.476 96.3206L101.54 93.9677C101.53 92.1842 101.026 90.4386 100.085 88.9252C99.1441 87.4118 97.8025 86.1901 96.2098 85.3961C97.1183 87.1474 97.8558 88.9861 97.8525 90.4685C97.8532 92.5129 97.3374 94.5242 96.3531 96.3147C95.3689 98.1051 93.9482 99.6163 92.2238 100.707L90.9264 101.514L90.6951 99.998C90.6448 99.6787 90.5811 99.3627 90.504 99.0602C90.1205 97.5585 89.3977 96.1654 88.3915 94.9886C87.3853 93.8118 86.1226 92.8829 84.7011 92.2735C85.8127 94.5848 86.0785 97.2143 85.452 99.7022C85.3161 100.251 85.1356 100.787 84.9123 101.306C84.8385 101.477 84.7581 101.642 84.6709 101.823C83.9259 103.344 82.839 104.67 81.4957 105.698C80.1525 106.726 78.5897 107.427 76.9303 107.746L75.3312 108.049L75.7636 106.489C76.1744 105.051 76.15 103.522 75.6934 102.098C75.2368 100.674 74.3687 99.4176 73.1991 98.4887C72.8035 100.842 72.3073 103.4 70.9966 105.326C70.8256 105.578 70.6613 105.823 70.4702 106.062C68.5452 108.644 66.0239 110.718 63.1229 112.107C60.2219 113.496 57.028 114.158 53.8155 114.037C50.603 113.915 47.4679 113.013 44.6797 111.409C41.8915 109.804 39.5334 107.545 37.8081 104.825L37.6471 104.566C37 103.526 36.4512 102.428 36.0078 101.285C35.1843 100.359 34.1364 99.6611 32.9655 99.259C31.7946 98.857 30.54 98.7643 29.323 98.99C28.1059 99.2157 26.9674 99.7521 26.0174 100.547C25.0673 101.343 24.3377 102.37 23.899 103.531Z" fill="white"/>
<path d="M63.7486 92.4382C63.1061 90.7701 62.071 89.2825 60.7314 88.1021C60.0794 87.5413 59.3638 87.0595 58.5993 86.6667C58.2233 86.4731 57.836 86.3025 57.4394 86.1558C57.245 86.0751 57.0338 86.0314 56.836 85.9676C56.6375 85.9005 56.4348 85.8466 56.2292 85.8062L55.6124 85.6819C55.4079 85.6415 55.1967 85.6348 54.9888 85.6113C54.5757 85.5682 54.1604 85.5502 53.7451 85.5575C53.5373 85.5575 53.3294 85.5877 53.1249 85.6012L52.8165 85.6281C52.7126 85.6281 52.612 85.6617 52.5081 85.6751L51.8979 85.7793L51.3012 85.9407L51.0029 86.0214L50.7146 86.1289L50.1379 86.3407L49.5814 86.6096L49.3066 86.7441L49.0451 86.9054L48.5187 87.2415L48.0259 87.6079L47.7779 87.7928L47.5499 88.0012L47.1007 88.4046C46.5177 88.9842 46.0108 89.6359 45.5921 90.3441C45.3778 90.6938 45.1874 91.0577 45.0222 91.4332C44.9386 91.6208 44.8648 91.8127 44.801 92.008C44.723 92.1998 44.657 92.3963 44.6032 92.5962L44.4423 93.1946C44.3886 93.3929 44.3685 93.6013 44.3283 93.803C44.2612 94.2125 44.2175 94.6255 44.1975 95.04C44.1975 95.2484 44.1975 95.4568 44.1975 95.6652V95.9778C44.1975 96.082 44.221 96.1862 44.2277 96.2904L44.2914 96.9156L44.4121 97.5308L44.4758 97.84L44.5629 98.1425L44.744 98.7509L44.9786 99.3392L45.0993 99.635L45.2435 99.9207L45.5351 100.489L45.8704 101.03L46.0413 101.302L46.2425 101.558L46.6414 102.069C47.8083 103.428 49.2897 104.479 50.9559 105.131C49.0982 104.838 47.3646 104.013 45.9642 102.754L45.4547 102.257L45.1999 102.001L44.9686 101.726L44.5026 101.178L44.1037 100.576L43.9025 100.274C43.8422 100.166 43.7885 100.059 43.7316 99.9375L43.3963 99.2888L43.1248 98.6165L42.9907 98.2803L42.8901 97.9274C42.4558 96.5144 42.3222 95.0257 42.4979 93.5576C42.5348 93.3156 42.5515 93.0668 42.6018 92.8248L42.7627 92.0987C43.2532 90.1596 44.2614 88.3912 45.6789 86.9834C47.0965 85.5757 48.8699 84.5818 50.8084 84.1087L51.5325 83.9474L52.2701 83.8566C52.3907 83.8566 52.5148 83.823 52.6355 83.8129H53.0076C53.2523 83.8129 53.497 83.7961 53.7451 83.8129C54.7248 83.8511 55.6953 84.0184 56.6315 84.3104C56.8658 84.3766 57.0954 84.4585 57.3187 84.5558C57.5433 84.6533 57.7747 84.7272 57.9892 84.8415C58.4262 85.049 58.8475 85.2883 59.2497 85.5575C60.0528 86.0844 60.7812 86.7176 61.4153 87.4399C62.6554 88.8469 63.4654 90.5821 63.7486 92.4382Z" fill="white"/>
<path d="M85.7972 48.3805C86.0455 47.0287 86.5423 45.735 87.2622 44.5653C87.6368 43.9644 88.0801 43.4094 88.583 42.9115C89.1065 42.4042 89.706 41.9823 90.3598 41.6611C91.0276 41.3323 91.7463 41.1198 92.4852 41.0325C93.2186 40.9538 93.9592 40.973 94.6877 41.0896C96.1086 41.3297 97.4727 41.8324 98.7105 42.572C99.9686 43.2995 101.087 44.2467 102.013 45.3687C102.931 46.4967 103.649 47.7748 104.135 49.1469C105.052 51.8473 105.31 54.7293 104.886 57.5504C104.492 60.3129 103.672 62.9971 102.455 65.5068C101.867 66.753 101.205 67.963 100.474 69.1303C99.7375 70.2912 98.942 71.4131 98.0903 72.4917C94.6832 76.7374 90.5094 80.302 85.7871 82.9994C90.0145 79.6817 93.8563 75.917 96.9036 71.5976C97.6652 70.5243 98.3712 69.4125 99.0189 68.2665C99.679 67.1354 100.271 65.9658 100.792 64.7639C101.844 62.3903 102.56 59.8808 102.918 57.3083C103.233 54.7671 103.119 52.1654 102.301 49.8057C101.503 47.4397 99.9169 45.4216 97.8087 44.0914C97.2756 43.7569 96.7148 43.469 96.1325 43.2308C95.5685 42.9769 94.9829 42.7744 94.3826 42.6258C93.2064 42.3236 91.9678 42.3726 90.819 42.767C89.6458 43.2299 88.613 43.991 87.822 44.9754C86.9799 46.0017 86.2972 47.1497 85.7972 48.3805Z" fill="white"/>
<path d="M62.1462 49.0763C63.7288 48.8756 65.2966 48.5713 66.8396 48.1654C68.3501 47.7755 69.8223 47.249 71.2379 46.5922C72.6433 45.9376 73.9685 45.1221 75.187 44.162C76.4278 43.1665 77.5665 42.0495 78.5863 40.8275C77.985 42.3717 77.0719 43.7747 75.9044 44.9485C74.7223 46.1377 73.3385 47.1063 71.8178 47.8091C70.3104 48.5118 68.7053 48.981 67.0575 49.2007C65.4254 49.4413 63.7642 49.3992 62.1462 49.0763Z" fill="white"/>
<path d="M112.553 64.6732C112.809 66.3658 112.703 68.0939 112.241 69.7421C111.805 71.4116 111.106 73.0003 110.169 74.4481C109.941 74.8145 109.67 75.1506 109.421 75.5002L109.036 76.0145L108.617 76.4884C108.325 76.8044 108.044 77.1271 107.742 77.4296C107.44 77.7322 107.105 77.9977 106.783 78.2767L106.27 78.6935L105.751 79.0633L104.698 79.7792C104.521 79.8957 104.338 80.0012 104.148 80.0952C103.96 80.1927 103.776 80.2969 103.588 80.3877C103.21 80.5793 102.834 80.7675 102.452 80.9389C103.052 80.3339 103.702 79.8229 104.299 79.2582L105.181 78.3977L105.623 77.9742L106.032 77.517C106.304 77.2145 106.579 76.9153 106.857 76.6229L107.618 75.6783L108 75.2111L108.335 74.7136C108.563 74.3775 108.815 74.0649 109.006 73.722C109.88 72.3675 110.617 70.9283 111.205 69.4262C111.828 67.8965 112.28 66.3025 112.553 64.6732Z" fill="white"/>
<path d="M59.7125 95.4232C60.1416 95.7032 60.5041 96.0746 60.7741 96.5109C61.044 96.9471 61.215 97.4376 61.2747 97.9476C61.3454 98.4855 61.3093 99.0321 61.1683 99.556C61.0274 100.08 60.7844 100.57 60.4534 101C59.788 101.869 58.8072 102.439 57.7245 102.586C57.2173 102.658 56.7006 102.618 56.2107 102.468C55.7207 102.318 55.2694 102.062 54.8884 101.719C55.7572 101.894 56.6566 101.837 57.4966 101.554C58.2456 101.288 58.9021 100.811 59.3873 100.18C59.8741 99.548 60.1655 98.7872 60.2254 97.9913C60.2855 97.1047 60.1084 96.2182 59.7125 95.4232Z" fill="white"/>
</svg>
